<?xml version="1.0" encoding="UTF-8"?><svg id="_圖層_1" xmlns="http://www.w3.org/2000/svg" viewBox="0 0 396.29 79.36"><defs><style>.cls-1,.cls-2,.cls-3{stroke-width:0px;}.cls-2{fill:#105998;}.cls-3{fill:#2cb6af;}</style></defs><path class="cls-1" d="m125.05,44.52h1.74v9.92h-1.74v-9.92Z"/><path class="cls-1" d="m129.18,47.26h1.5v1.06l.03.03c.24-.4.56-.71.95-.94.39-.23.82-.34,1.29-.34.79,0,1.41.2,1.86.61.45.41.68,1.02.68,1.83v4.93h-1.58v-4.52c-.02-.56-.14-.97-.36-1.23-.22-.25-.57-.38-1.04-.38-.27,0-.51.05-.72.15-.21.1-.39.23-.54.4-.15.17-.26.37-.35.6-.08.23-.13.48-.13.74v4.24h-1.58v-7.18Z"/><path class="cls-1" d="m144.42,54.44h-1.5v-.97h-.03c-.21.42-.52.72-.93.9-.41.18-.84.27-1.29.27-.57,0-1.06-.1-1.48-.3-.42-.2-.77-.47-1.05-.81-.28-.34-.49-.75-.63-1.22-.14-.47-.21-.97-.21-1.51,0-.65.09-1.21.26-1.68.18-.47.41-.86.7-1.17s.63-.53,1-.67c.38-.14.76-.22,1.15-.22.22,0,.45.02.68.06.23.04.45.11.67.2.21.09.41.21.59.35.18.14.33.31.45.51h.03v-3.67h1.58v9.92Zm-5.53-3.52c0,.31.04.61.12.9.08.3.2.56.36.79.16.23.37.42.62.56.25.14.55.21.89.21s.66-.07.91-.22c.25-.15.46-.34.63-.58.16-.24.28-.51.36-.81.08-.3.12-.61.12-.92,0-.8-.18-1.42-.54-1.86-.36-.44-.84-.67-1.45-.67-.37,0-.68.08-.94.23-.26.15-.46.35-.63.6-.16.25-.28.52-.35.83-.07.31-.1.63-.1.95Z"/><path class="cls-1" d="m152.92,54.44h-1.56v-1h-.03c-.19.36-.48.65-.87.87-.38.22-.78.33-1.17.33-.94,0-1.63-.23-2.05-.7-.42-.47-.63-1.17-.63-2.12v-4.56h1.58v4.4c0,.63.12,1.07.36,1.33.24.26.58.39,1.01.39.33,0,.61-.05.83-.15.22-.1.4-.24.54-.41.14-.17.24-.38.3-.62.06-.24.09-.5.09-.78v-4.17h1.58v7.18Z"/><path class="cls-1" d="m156.3,52.13c.05.46.22.79.53.97.31.19.67.28,1.1.28.15,0,.32-.01.51-.03.19-.02.37-.07.54-.13.17-.06.3-.16.41-.28.11-.12.15-.29.15-.49,0-.2-.08-.37-.22-.5-.14-.13-.32-.23-.53-.31-.22-.08-.47-.15-.74-.2-.28-.06-.56-.12-.85-.18-.3-.06-.58-.14-.85-.24-.27-.09-.52-.22-.74-.38-.22-.16-.39-.36-.52-.6-.13-.25-.19-.55-.19-.91,0-.39.09-.72.28-.98.19-.26.43-.48.72-.64.29-.16.62-.28.97-.34.36-.06.7-.1,1.02-.1.37,0,.73.04,1.06.12.34.08.64.21.92.38.27.18.5.41.68.69.18.28.29.62.34,1.02h-1.65c-.07-.38-.25-.63-.52-.76-.27-.13-.59-.19-.94-.19-.11,0-.24,0-.4.03-.15.02-.3.05-.43.1-.13.05-.25.12-.34.22-.09.1-.14.23-.14.38,0,.19.07.35.2.47.13.12.31.22.53.3.22.08.47.15.74.2.28.06.56.12.86.18.29.06.57.14.85.24.28.09.52.22.74.38.22.16.39.36.53.6.13.24.2.54.2.89,0,.43-.1.79-.29,1.08-.19.3-.45.54-.76.72-.31.19-.66.32-1.04.4-.38.08-.75.12-1.12.12-.45,0-.87-.05-1.26-.15-.38-.1-.72-.26-1-.47-.28-.21-.51-.47-.67-.78-.16-.31-.25-.68-.26-1.1h1.58Z"/><path class="cls-1" d="m162.16,47.26h1.2v-2.15h1.58v2.15h1.43v1.18h-1.43v3.84c0,.17,0,.31.02.43.01.12.05.22.1.31.05.08.13.15.23.19.1.04.24.06.42.06.11,0,.22,0,.33,0s.22-.02.33-.05v1.22c-.18.02-.35.04-.51.06-.17.02-.34.03-.51.03-.42,0-.75-.04-1.01-.12-.26-.08-.45-.19-.6-.35-.14-.15-.24-.35-.29-.58-.05-.23-.08-.5-.09-.79v-4.24h-1.2v-1.18Z"/><path class="cls-1" d="m168.01,47.26h1.49v1.39h.03c.05-.19.14-.38.27-.57.13-.19.3-.35.49-.51.19-.15.4-.28.63-.37.23-.09.47-.14.71-.14.19,0,.31,0,.38.01.07,0,.14.02.22.03v1.53c-.11-.02-.23-.03-.34-.05-.12-.01-.23-.02-.34-.02-.27,0-.52.05-.76.16-.24.11-.44.26-.62.47-.18.21-.31.47-.42.77-.1.31-.15.66-.15,1.06v3.42h-1.58v-7.18Z"/><path class="cls-1" d="m173.58,44.52h1.58v1.5h-1.58v-1.5Zm0,2.74h1.58v7.18h-1.58v-7.18Z"/><path class="cls-1" d="m183.41,52.84c0,.19.03.33.08.42.05.08.15.13.3.13h.17c.07,0,.14,0,.22-.03v1.1c-.06.02-.13.04-.22.06-.09.02-.18.04-.27.06-.09.02-.19.03-.28.04-.09,0-.17.01-.24.01-.32,0-.59-.07-.81-.19s-.35-.36-.42-.68c-.32.31-.7.53-1.16.67s-.9.21-1.33.21c-.32,0-.64-.04-.93-.13s-.56-.22-.79-.39c-.23-.17-.41-.39-.54-.65-.13-.26-.2-.57-.2-.92,0-.44.08-.81.24-1.08.16-.28.38-.5.64-.65.26-.16.56-.27.89-.34.33-.07.66-.12.99-.16.29-.06.56-.09.82-.12.26-.02.49-.06.69-.12.2-.06.36-.14.47-.26.12-.12.17-.29.17-.52,0-.2-.05-.37-.15-.5s-.22-.23-.36-.3c-.14-.07-.3-.12-.48-.14-.18-.02-.34-.04-.5-.04-.45,0-.81.09-1.1.28-.29.19-.45.47-.49.86h-1.58c.03-.46.14-.85.33-1.15.19-.31.44-.55.74-.74.3-.19.64-.31,1.02-.39.38-.07.77-.11,1.17-.11.35,0,.7.04,1.04.11.34.07.65.19.92.36.27.17.49.38.66.65.17.26.25.59.25.97v3.7Zm-1.58-2c-.24.16-.54.25-.89.28-.35.03-.7.08-1.06.15-.17.03-.33.07-.49.12-.16.05-.3.12-.42.21-.12.09-.22.2-.28.35-.07.14-.1.32-.1.52,0,.18.05.32.15.44.1.12.23.22.37.28.14.07.3.12.47.15.17.03.33.04.47.04.18,0,.37-.02.57-.07.2-.05.4-.12.58-.24.18-.11.33-.25.45-.42.12-.17.18-.38.18-.63v-1.18Z"/><path class="cls-1" d="m185.73,44.52h1.58v9.92h-1.58v-9.92Z"/><path class="cls-1" d="m194.24,44.52h4.11c.76,0,1.42.13,1.97.39.56.26,1.01.61,1.36,1.06.35.45.61.98.78,1.58.17.6.26,1.25.26,1.93s-.09,1.33-.26,1.93c-.17.6-.43,1.13-.78,1.58-.35.45-.81.8-1.36,1.06-.56.26-1.21.39-1.97.39h-4.11v-9.92Zm1.74,8.5h1.71c.68,0,1.23-.09,1.66-.27.43-.18.77-.43,1.01-.75.25-.32.41-.69.5-1.12.09-.43.13-.9.13-1.4s-.04-.97-.13-1.4c-.09-.43-.25-.81-.5-1.13-.24-.32-.58-.57-1.01-.75-.43-.18-.98-.27-1.66-.27h-1.71v7.09Z"/><path class="cls-1" d="m205.84,51.26c0,.28.04.55.12.81.08.26.2.49.36.68.16.19.36.35.6.47.24.12.53.17.86.17.46,0,.84-.1,1.12-.3.28-.2.49-.5.63-.9h1.5c-.08.39-.23.74-.43,1.04-.2.31-.45.56-.74.77s-.61.37-.97.47c-.36.11-.73.16-1.12.16-.56,0-1.07-.09-1.5-.28-.44-.19-.8-.44-1.11-.78-.3-.33-.53-.73-.68-1.2-.15-.46-.23-.97-.23-1.53,0-.51.08-.99.24-1.45.16-.46.39-.86.69-1.21.3-.35.66-.62,1.09-.83.43-.2.91-.31,1.44-.31.56,0,1.07.12,1.52.35.45.24.82.55,1.12.94.3.39.51.84.65,1.34.13.51.17,1.03.1,1.56h-5.28Zm3.7-1.04c-.02-.25-.07-.49-.16-.72-.09-.23-.21-.43-.36-.6-.15-.17-.34-.31-.56-.42-.22-.11-.46-.16-.73-.16s-.53.05-.76.15c-.23.1-.42.23-.58.4-.16.17-.29.37-.39.6-.1.23-.15.48-.16.75h3.7Z"/><path class="cls-1" d="m211.94,47.26h1.72l1.82,5.52h.03l1.75-5.52h1.64l-2.57,7.18h-1.78l-2.61-7.18Z"/><path class="cls-1" d="m221.33,51.26c0,.28.04.55.12.81.08.26.2.49.35.68.16.19.36.35.6.47.24.12.53.17.86.17.46,0,.84-.1,1.12-.3s.49-.5.63-.9h1.5c-.08.39-.23.74-.43,1.04-.2.31-.45.56-.74.77s-.61.37-.97.47c-.36.11-.73.16-1.12.16-.56,0-1.07-.09-1.5-.28-.43-.19-.8-.44-1.1-.78-.3-.33-.53-.73-.68-1.2-.15-.46-.23-.97-.23-1.53,0-.51.08-.99.24-1.45.16-.46.39-.86.69-1.21.3-.35.66-.62,1.09-.83.43-.2.91-.31,1.44-.31.56,0,1.07.12,1.52.35.45.24.82.55,1.12.94.3.39.51.84.65,1.34.13.51.17,1.03.1,1.56h-5.28Zm3.7-1.04c-.02-.25-.07-.49-.16-.72-.09-.23-.21-.43-.36-.6-.15-.17-.34-.31-.56-.42-.22-.11-.46-.16-.73-.16s-.53.05-.76.15c-.23.1-.42.23-.58.4-.16.17-.29.37-.39.6-.1.23-.15.48-.16.75h3.7Z"/><path class="cls-1" d="m228.41,44.52h1.58v9.92h-1.58v-9.92Z"/><path class="cls-1" d="m235.48,54.64c-.58,0-1.09-.09-1.54-.28-.45-.19-.83-.45-1.14-.79-.31-.33-.55-.73-.71-1.19-.16-.46-.24-.97-.24-1.53s.08-1.05.24-1.51c.16-.46.4-.86.71-1.2.31-.33.69-.59,1.14-.79.45-.19.96-.28,1.54-.28s1.09.1,1.54.28c.45.19.83.45,1.14.79.31.33.55.73.71,1.2.16.46.24.97.24,1.51s-.08,1.07-.24,1.53c-.16.46-.4.86-.71,1.19-.31.33-.69.6-1.14.79-.45.19-.96.28-1.54.28Zm0-1.25c.35,0,.66-.07.92-.22.26-.15.47-.34.64-.58.17-.24.29-.51.37-.81.08-.3.12-.61.12-.92s-.04-.61-.12-.92c-.08-.31-.2-.58-.37-.81-.17-.24-.38-.43-.64-.58-.26-.15-.56-.22-.92-.22s-.66.07-.92.22-.47.34-.64.58c-.17.24-.29.51-.37.81-.08.31-.12.61-.12.92s.04.62.12.92c.08.3.2.57.37.81.17.24.38.44.64.58.26.15.56.22.92.22Z"/><path class="cls-1" d="m240.95,47.26h1.5v.97h.03c.22-.42.53-.72.93-.9.4-.18.83-.27,1.29-.27.56,0,1.06.1,1.48.3.42.2.77.47,1.05.82.28.35.49.75.62,1.22.14.46.21.96.21,1.49,0,.48-.06.95-.19,1.4-.12.45-.32.85-.57,1.2-.25.35-.58.63-.97.83-.39.21-.85.31-1.38.31-.23,0-.46-.02-.69-.06-.23-.04-.45-.11-.67-.2-.21-.09-.41-.21-.59-.35-.18-.14-.33-.31-.45-.51h-.03v3.58h-1.58v-9.84Zm5.53,3.6c0-.32-.04-.64-.13-.95-.08-.31-.21-.58-.38-.81s-.38-.43-.63-.57c-.25-.14-.54-.22-.86-.22-.67,0-1.17.23-1.51.69-.34.46-.51,1.08-.51,1.85,0,.36.04.7.13,1.01.09.31.22.58.39.8.18.22.39.4.63.53.24.13.53.19.85.19.36,0,.67-.07.92-.22.25-.15.46-.34.62-.58.16-.24.28-.5.35-.81.07-.3.1-.61.1-.92Z"/><path class="cls-1" d="m249.9,47.26h1.5v1h.04c.12-.18.25-.34.39-.49.14-.15.29-.27.47-.38.17-.1.37-.18.59-.24.22-.06.48-.09.76-.09.43,0,.84.1,1.22.29.38.19.64.5.8.9.27-.37.58-.66.93-.88.35-.21.79-.32,1.32-.32.76,0,1.35.19,1.77.56.42.37.63.99.63,1.86v4.96h-1.58v-4.2c0-.29,0-.55-.03-.79-.02-.24-.07-.44-.16-.61-.09-.17-.22-.3-.4-.4-.18-.09-.42-.14-.72-.14-.54,0-.93.17-1.17.5-.24.33-.36.81-.36,1.42v4.21h-1.58v-4.61c0-.5-.09-.88-.27-1.13-.18-.25-.51-.38-.99-.38-.2,0-.4.04-.59.13-.19.08-.36.2-.5.36-.14.16-.26.35-.35.58-.09.23-.13.5-.13.79v4.27h-1.58v-7.18Z"/><path class="cls-1" d="m263.71,51.26c0,.28.04.55.12.81.08.26.2.49.35.68.16.19.36.35.6.47.24.12.53.17.86.17.46,0,.84-.1,1.12-.3s.49-.5.63-.9h1.5c-.08.39-.23.74-.43,1.04-.2.31-.45.56-.74.77s-.61.37-.97.47c-.36.11-.73.16-1.12.16-.56,0-1.07-.09-1.5-.28-.44-.19-.8-.44-1.11-.78s-.53-.73-.68-1.2c-.15-.46-.23-.97-.23-1.53,0-.51.08-.99.24-1.45.16-.46.39-.86.69-1.21.3-.35.66-.62,1.09-.83.43-.2.91-.31,1.44-.31.56,0,1.07.12,1.52.35.45.24.82.55,1.12.94.3.39.51.84.65,1.34.13.51.17,1.03.1,1.56h-5.28Zm3.7-1.04c-.02-.25-.07-.49-.16-.72-.09-.23-.21-.43-.36-.6-.15-.17-.34-.31-.56-.42-.22-.11-.46-.16-.73-.16s-.53.05-.76.15c-.23.1-.42.23-.58.4-.16.17-.29.37-.39.6-.1.23-.15.48-.16.75h3.7Z"/><path class="cls-1" d="m270.77,47.26h1.5v1.06l.03.03c.24-.4.56-.71.94-.94.39-.23.82-.34,1.29-.34.79,0,1.41.2,1.86.61.45.41.68,1.02.68,1.83v4.93h-1.58v-4.52c-.02-.56-.14-.97-.36-1.23-.22-.25-.57-.38-1.04-.38-.27,0-.51.05-.72.15-.21.1-.39.23-.54.4-.15.17-.26.37-.35.6-.08.23-.13.48-.13.74v4.24h-1.58v-7.18Z"/><path class="cls-1" d="m278.49,47.26h1.19v-2.15h1.58v2.15h1.43v1.18h-1.43v3.84c0,.17,0,.31.02.43.01.12.05.22.1.31.05.08.13.15.23.19.1.04.24.06.42.06.11,0,.22,0,.33,0,.11,0,.22-.02.33-.05v1.22c-.18.02-.35.04-.51.06-.17.02-.34.03-.51.03-.42,0-.75-.04-1.01-.12-.25-.08-.45-.19-.6-.35-.14-.15-.24-.35-.29-.58-.05-.23-.08-.5-.09-.79v-4.24h-1.19v-1.18Z"/><path class="cls-1" d="m291.69,44.52h1.85l3.82,9.92h-1.86l-.93-2.63h-3.96l-.93,2.63h-1.79l3.81-9.92Zm-.61,5.97h3.03l-1.49-4.27h-.04l-1.5,4.27Z"/><path class="cls-1" d="m305.24,54.44h-1.5v-.97h-.03c-.21.42-.52.72-.93.9-.41.18-.84.27-1.29.27-.56,0-1.06-.1-1.48-.3-.42-.2-.77-.47-1.05-.81s-.49-.75-.62-1.22c-.14-.47-.21-.97-.21-1.51,0-.65.09-1.21.26-1.68.18-.47.41-.86.7-1.17s.62-.53,1-.67c.38-.14.76-.22,1.15-.22.22,0,.45.02.68.06.23.04.45.11.67.2.21.09.41.21.59.35.18.14.33.31.45.51h.03v-3.67h1.58v9.92Zm-5.53-3.52c0,.31.04.61.12.9.08.3.2.56.36.79.16.23.37.42.62.56.25.14.55.21.89.21s.66-.07.91-.22c.26-.15.46-.34.63-.58.16-.24.28-.51.36-.81.08-.3.12-.61.12-.92,0-.8-.18-1.42-.53-1.86-.36-.44-.84-.67-1.45-.67-.37,0-.68.08-.94.23-.25.15-.46.35-.62.6-.16.25-.28.52-.35.83-.07.31-.1.63-.1.95Z"/><path class="cls-1" d="m307.45,47.26h1.5v1h.04c.12-.18.25-.34.39-.49.14-.15.29-.27.47-.38.17-.1.37-.18.59-.24.22-.06.48-.09.76-.09.43,0,.84.1,1.22.29.38.19.64.5.8.9.27-.37.58-.66.93-.88.35-.21.79-.32,1.32-.32.76,0,1.35.19,1.77.56.42.37.63.99.63,1.86v4.96h-1.58v-4.2c0-.29,0-.55-.03-.79-.02-.24-.07-.44-.16-.61-.09-.17-.22-.3-.4-.4-.18-.09-.42-.14-.72-.14-.54,0-.93.17-1.17.5-.24.33-.36.81-.36,1.42v4.21h-1.58v-4.61c0-.5-.09-.88-.27-1.13-.18-.25-.51-.38-.99-.38-.2,0-.4.04-.59.13-.19.08-.36.2-.5.36-.14.16-.26.35-.35.58-.09.23-.13.5-.13.79v4.27h-1.58v-7.18Z"/><path class="cls-1" d="m320.06,44.52h1.58v1.5h-1.58v-1.5Zm0,2.74h1.58v7.18h-1.58v-7.18Z"/><path class="cls-1" d="m323.84,47.26h1.5v1.06l.03.03c.24-.4.56-.71.94-.94.39-.23.82-.34,1.29-.34.79,0,1.41.2,1.86.61.45.41.68,1.02.68,1.83v4.93h-1.58v-4.52c-.02-.56-.14-.97-.36-1.23-.22-.25-.57-.38-1.04-.38-.27,0-.51.05-.72.15-.21.1-.39.23-.54.4-.15.17-.26.37-.35.6-.08.23-.13.48-.13.74v4.24h-1.58v-7.18Z"/><path class="cls-1" d="m332.33,44.52h1.58v1.5h-1.58v-1.5Zm0,2.74h1.58v7.18h-1.58v-7.18Z"/><path class="cls-1" d="m337.34,52.13c.05.46.22.79.53.97.31.19.67.28,1.1.28.15,0,.32-.01.51-.03.19-.02.37-.07.54-.13.17-.06.3-.16.41-.28.11-.12.15-.29.15-.49,0-.2-.08-.37-.22-.5-.14-.13-.32-.23-.53-.31-.22-.08-.47-.15-.74-.2-.28-.06-.56-.12-.85-.18-.3-.06-.58-.14-.85-.24-.27-.09-.52-.22-.74-.38-.22-.16-.39-.36-.52-.6-.13-.25-.19-.55-.19-.91,0-.39.09-.72.28-.98s.43-.48.72-.64c.29-.16.62-.28.97-.34.36-.06.7-.1,1.02-.1.37,0,.73.04,1.06.12.34.08.64.21.92.38.27.18.5.41.68.69.18.28.29.62.34,1.02h-1.65c-.07-.38-.25-.63-.52-.76-.27-.13-.59-.19-.94-.19-.11,0-.24,0-.4.03-.15.02-.3.05-.43.1-.13.05-.25.12-.34.22-.09.1-.14.23-.14.38,0,.19.07.35.2.47.13.12.31.22.53.3.22.08.47.15.74.2.28.06.56.12.86.18.29.06.57.14.85.24.28.09.52.22.74.38s.39.36.53.6c.13.24.2.54.2.89,0,.43-.1.79-.29,1.08s-.45.54-.76.72c-.31.19-.66.32-1.04.4-.38.08-.75.12-1.12.12-.45,0-.87-.05-1.26-.15-.38-.1-.72-.26-1-.47-.28-.21-.51-.47-.67-.78-.16-.31-.25-.68-.26-1.1h1.58Z"/><path class="cls-1" d="m343.2,47.26h1.2v-2.15h1.58v2.15h1.43v1.18h-1.43v3.84c0,.17,0,.31.02.43.01.12.05.22.1.31.05.08.13.15.23.19.1.04.24.06.42.06.11,0,.22,0,.33,0,.11,0,.22-.02.33-.05v1.22c-.18.02-.35.04-.51.06-.17.02-.34.03-.51.03-.42,0-.75-.04-1.01-.12-.26-.08-.45-.19-.6-.35-.14-.15-.24-.35-.29-.58-.05-.23-.08-.5-.09-.79v-4.24h-1.2v-1.18Z"/><path class="cls-1" d="m349.04,47.26h1.49v1.39h.03c.05-.19.14-.38.27-.57.13-.19.3-.35.49-.51.19-.15.4-.28.63-.37.23-.09.47-.14.71-.14.19,0,.31,0,.38.01.07,0,.14.02.22.03v1.53c-.11-.02-.22-.03-.34-.05-.12-.01-.23-.02-.34-.02-.27,0-.52.05-.76.16-.24.11-.44.26-.62.47-.18.21-.31.47-.42.77-.1.31-.15.66-.15,1.06v3.42h-1.58v-7.18Z"/><path class="cls-1" d="m360.64,52.84c0,.19.02.33.08.42.05.08.15.13.3.13h.17c.06,0,.14,0,.22-.03v1.1c-.06.02-.13.04-.22.06-.09.02-.18.04-.27.06-.09.02-.19.03-.28.04-.09,0-.17.01-.24.01-.32,0-.59-.07-.81-.19-.21-.13-.35-.36-.42-.68-.32.31-.7.53-1.16.67-.46.14-.9.21-1.33.21-.32,0-.63-.04-.93-.13-.3-.09-.56-.22-.79-.39-.23-.17-.41-.39-.54-.65-.13-.26-.2-.57-.2-.92,0-.44.08-.81.24-1.08.16-.28.38-.5.64-.65.26-.16.56-.27.89-.34.33-.07.66-.12.99-.16.29-.06.56-.09.82-.12.26-.02.49-.06.69-.12.2-.06.36-.14.47-.26.11-.12.17-.29.17-.52,0-.2-.05-.37-.15-.5s-.22-.23-.36-.3c-.14-.07-.3-.12-.48-.14-.18-.02-.34-.04-.5-.04-.44,0-.81.09-1.1.28-.29.19-.45.47-.49.86h-1.58c.03-.46.14-.85.33-1.15.19-.31.44-.55.74-.74.3-.19.64-.31,1.02-.39.38-.07.77-.11,1.17-.11.35,0,.7.04,1.04.11.34.07.65.19.92.36.27.17.49.38.66.65.17.26.25.59.25.97v3.7Zm-1.58-2c-.24.16-.54.25-.89.28-.35.03-.7.08-1.06.15-.17.03-.33.07-.49.12-.16.05-.3.12-.42.21s-.21.2-.28.35c-.07.14-.1.32-.1.52,0,.18.05.32.15.44.1.12.22.22.37.28.14.07.3.12.47.15.17.03.33.04.47.04.18,0,.37-.02.57-.07.2-.05.4-.12.58-.24.18-.11.33-.25.45-.42.12-.17.18-.38.18-.63v-1.18Z"/><path class="cls-1" d="m362.1,47.26h1.2v-2.15h1.58v2.15h1.43v1.18h-1.43v3.84c0,.17,0,.31.02.43.01.12.05.22.1.31.05.08.13.15.23.19.1.04.24.06.42.06.11,0,.22,0,.33,0s.22-.02.33-.05v1.22c-.18.02-.35.04-.51.06-.17.02-.34.03-.51.03-.42,0-.75-.04-1.01-.12-.26-.08-.45-.19-.6-.35-.14-.15-.24-.35-.29-.58-.05-.23-.08-.5-.09-.79v-4.24h-1.2v-1.18Z"/><path class="cls-1" d="m367.99,44.52h1.58v1.5h-1.58v-1.5Zm0,2.74h1.58v7.18h-1.58v-7.18Z"/><path class="cls-1" d="m375.07,54.64c-.57,0-1.09-.09-1.54-.28-.45-.19-.83-.45-1.14-.79s-.55-.73-.71-1.19c-.16-.46-.24-.97-.24-1.53s.08-1.05.24-1.51c.16-.46.4-.86.71-1.2s.69-.59,1.14-.79c.45-.19.96-.28,1.54-.28s1.09.1,1.54.28c.45.19.83.45,1.14.79.31.33.55.73.71,1.2.16.46.24.97.24,1.51s-.08,1.07-.24,1.53c-.16.46-.4.86-.71,1.19-.31.33-.69.6-1.14.79-.45.19-.96.28-1.54.28Zm0-1.25c.35,0,.66-.07.92-.22.26-.15.47-.34.64-.58.17-.24.29-.51.37-.81.08-.3.12-.61.12-.92s-.04-.61-.12-.92c-.08-.31-.2-.58-.37-.81-.17-.24-.38-.43-.64-.58-.26-.15-.57-.22-.92-.22s-.66.07-.92.22c-.26.15-.47.34-.64.58-.17.24-.29.51-.37.81-.08.31-.12.61-.12.92s.04.62.12.92c.08.3.2.57.37.81.17.24.38.44.64.58.26.15.56.22.92.22Z"/><path class="cls-1" d="m380.52,47.26h1.5v1.06l.03.03c.24-.4.56-.71.94-.94.39-.23.82-.34,1.29-.34.79,0,1.41.2,1.86.61.45.41.68,1.02.68,1.83v4.93h-1.58v-4.52c-.02-.56-.14-.97-.36-1.23-.22-.25-.57-.38-1.04-.38-.27,0-.51.05-.72.15-.21.1-.39.23-.54.4-.15.17-.26.37-.35.6-.08.23-.13.48-.13.74v4.24h-1.58v-7.18Z"/><path class="cls-1" d="m125.03,60.12h2.44l2.74,7.77h.03l2.67-7.77h2.42v9.92h-1.65v-7.66h-.03l-2.75,7.66h-1.43l-2.75-7.66h-.03v7.66h-1.65v-9.92Z"/><path class="cls-1" d="m137.71,60.12h1.58v1.5h-1.58v-1.5Zm0,2.74h1.58v7.18h-1.58v-7.18Z"/><path class="cls-1" d="m141.49,62.86h1.5v1.06l.03.03c.24-.4.56-.71.94-.94.39-.23.82-.34,1.29-.34.79,0,1.41.2,1.86.61.45.41.68,1.02.68,1.83v4.93h-1.58v-4.52c-.02-.56-.14-.97-.36-1.23-.22-.25-.57-.38-1.04-.38-.27,0-.51.05-.72.15-.21.1-.39.23-.54.4-.15.17-.26.37-.35.6-.08.23-.13.48-.13.74v4.24h-1.58v-7.18Z"/><path class="cls-1" d="m149.98,60.12h1.58v1.5h-1.58v-1.5Zm0,2.74h1.58v7.18h-1.58v-7.18Z"/><path class="cls-1" d="m154.99,67.73c.05.46.22.79.53.97.31.19.67.28,1.1.28.15,0,.32-.01.51-.03.19-.02.37-.07.54-.13.17-.06.3-.16.41-.28.11-.12.15-.29.15-.49,0-.2-.08-.37-.22-.5-.14-.13-.32-.23-.53-.31-.22-.08-.47-.15-.74-.2-.28-.06-.56-.12-.85-.18-.3-.06-.58-.14-.85-.24-.27-.09-.52-.22-.74-.38-.22-.16-.39-.36-.52-.6-.13-.25-.19-.55-.19-.91,0-.39.09-.72.28-.98.19-.26.43-.48.72-.64.29-.16.62-.28.97-.34.36-.06.7-.1,1.02-.1.37,0,.73.04,1.06.12.34.08.64.21.92.38.27.18.5.41.68.69s.29.62.34,1.02h-1.65c-.07-.38-.25-.63-.52-.76-.27-.13-.59-.19-.94-.19-.11,0-.24,0-.4.03-.15.02-.3.05-.43.1-.13.05-.25.12-.34.22-.09.1-.14.22-.14.38,0,.19.07.35.2.47.13.12.31.22.53.3.22.08.47.15.74.2.28.06.56.12.86.18.29.07.57.14.85.24.28.09.52.22.74.38s.39.36.53.6c.13.24.2.54.2.89,0,.43-.1.79-.29,1.08-.19.3-.45.54-.76.72-.31.19-.66.32-1.04.4-.38.08-.75.12-1.12.12-.45,0-.87-.05-1.26-.15-.38-.1-.72-.26-1-.47-.28-.21-.51-.47-.67-.78-.16-.31-.25-.68-.26-1.1h1.58Z"/><path class="cls-1" d="m160.85,62.86h1.2v-2.15h1.58v2.15h1.43v1.18h-1.43v3.83c0,.17,0,.31.02.43.01.12.05.22.1.31.05.08.13.15.23.19.1.04.24.06.42.06.11,0,.22,0,.33,0,.11,0,.22-.02.33-.05v1.22c-.18.02-.35.04-.51.06-.17.02-.34.03-.51.03-.42,0-.75-.04-1.01-.12-.26-.08-.45-.19-.6-.35-.14-.15-.24-.35-.29-.58-.05-.23-.08-.5-.09-.79v-4.24h-1.2v-1.18Z"/><path class="cls-1" d="m166.7,62.86h1.49v1.39h.03c.05-.19.14-.38.27-.57.13-.19.3-.35.49-.51.19-.15.4-.28.63-.37.23-.09.47-.14.71-.14.19,0,.31,0,.38.01.07,0,.14.02.22.03v1.53c-.11-.02-.22-.03-.34-.05-.12-.01-.23-.02-.34-.02-.27,0-.52.05-.76.16s-.44.26-.62.47c-.18.21-.31.47-.42.77-.1.31-.15.66-.15,1.06v3.42h-1.58v-7.18Z"/><path class="cls-1" d="m171.86,62.86h1.74l1.88,5.36h.03l1.82-5.36h1.65l-2.79,7.57c-.13.32-.26.63-.38.93s-.28.56-.46.79c-.18.23-.41.41-.67.54-.27.13-.61.2-1.03.2-.37,0-.74-.03-1.1-.08v-1.33c.13.02.25.04.38.06.12.02.24.03.38.03.19,0,.34-.02.46-.07.12-.05.22-.11.3-.2.08-.09.15-.19.2-.31.06-.12.11-.26.15-.42l.18-.56-2.72-7.16Z"/><path class="cls-1" d="m188.13,70.24c-.58,0-1.09-.09-1.54-.28-.45-.19-.83-.45-1.14-.79-.31-.33-.55-.73-.71-1.19-.16-.46-.24-.97-.24-1.53s.08-1.05.24-1.51c.16-.46.4-.86.71-1.2.31-.33.69-.59,1.14-.79.45-.19.96-.28,1.54-.28s1.09.1,1.54.28c.45.19.83.45,1.14.79.31.33.55.73.71,1.2.16.46.24.97.24,1.51s-.08,1.07-.24,1.53c-.16.46-.4.86-.71,1.19-.31.33-.69.6-1.14.79-.45.19-.96.28-1.54.28Zm0-1.25c.35,0,.66-.07.92-.22.26-.15.47-.34.64-.58.17-.24.29-.51.37-.81.08-.3.12-.61.12-.92s-.04-.61-.12-.92c-.08-.31-.2-.58-.37-.81-.17-.24-.38-.43-.64-.58s-.56-.22-.92-.22-.66.07-.92.22-.47.34-.64.58c-.17.24-.29.51-.37.81-.08.31-.12.61-.12.92s.04.62.12.92c.08.3.2.57.37.81.17.24.38.44.64.58.26.15.56.22.92.22Z"/><path class="cls-1" d="m192.77,62.86h1.18v-.6c0-.45.06-.82.17-1.11.11-.28.26-.5.44-.65.19-.15.4-.25.63-.31.24-.05.48-.08.74-.08.51,0,.88.03,1.11.1v1.24c-.1-.03-.21-.05-.33-.06-.12-.01-.25-.02-.41-.02-.21,0-.4.05-.55.15-.15.1-.23.3-.23.6v.74h1.35v1.18h-1.35v6h-1.58v-6h-1.18v-1.18Z"/><path class="cls-1" d="m203.06,60.12h7.14v1.5h-5.41v2.6h5v1.42h-5v2.9h5.5v1.5h-7.24v-9.92Z"/><path class="cls-1" d="m216.81,65.26c-.07-.44-.24-.78-.54-1.01-.29-.23-.66-.34-1.1-.34-.2,0-.42.04-.65.1-.23.07-.44.2-.64.39-.19.19-.36.45-.49.79-.13.34-.19.78-.19,1.33,0,.3.04.59.1.89.07.3.18.56.33.79.15.23.35.42.59.56.24.14.53.22.88.22.46,0,.84-.14,1.15-.43.3-.29.49-.69.56-1.21h1.58c-.15.94-.5,1.65-1.06,2.15-.56.5-1.3.74-2.23.74-.56,0-1.06-.09-1.49-.28-.43-.19-.79-.45-1.09-.78s-.52-.72-.67-1.17c-.15-.45-.23-.94-.23-1.47s.07-1.04.22-1.51c.15-.47.37-.88.67-1.23.3-.35.66-.62,1.11-.82.44-.2.96-.3,1.55-.3.42,0,.81.05,1.19.16.38.11.71.27,1,.48.29.21.53.48.72.81.19.32.3.71.33,1.15h-1.58Z"/><path class="cls-1" d="m223.48,70.24c-.58,0-1.09-.09-1.54-.28-.45-.19-.83-.45-1.14-.79-.31-.33-.55-.73-.71-1.19-.16-.46-.24-.97-.24-1.53s.08-1.05.24-1.51c.16-.46.4-.86.71-1.2.31-.33.69-.59,1.14-.79.45-.19.96-.28,1.54-.28s1.09.1,1.54.28c.45.19.83.45,1.14.79.31.33.55.73.71,1.2.16.46.24.97.24,1.51s-.08,1.07-.24,1.53c-.16.46-.4.86-.71,1.19-.31.33-.69.6-1.14.79-.45.19-.96.28-1.54.28Zm0-1.25c.35,0,.66-.07.92-.22.26-.15.47-.34.64-.58.17-.24.29-.51.37-.81.08-.3.12-.61.12-.92s-.04-.61-.12-.92c-.08-.31-.2-.58-.37-.81-.17-.24-.38-.43-.64-.58s-.56-.22-.92-.22-.66.07-.92.22-.47.34-.64.58c-.17.24-.29.51-.37.81-.08.31-.12.61-.12.92s.04.62.12.92c.08.3.2.57.37.81.17.24.38.44.64.58.26.15.56.22.92.22Z"/><path class="cls-1" d="m228.93,62.86h1.5v1.06l.03.03c.24-.4.56-.71.94-.94.39-.23.82-.34,1.29-.34.79,0,1.41.2,1.86.61.45.41.68,1.02.68,1.83v4.93h-1.58v-4.52c-.02-.56-.14-.97-.36-1.23-.22-.25-.57-.38-1.04-.38-.27,0-.51.05-.72.15-.21.1-.39.23-.54.4-.15.17-.26.37-.35.6-.08.23-.13.48-.13.74v4.24h-1.58v-7.18Z"/><path class="cls-1" d="m240.67,70.24c-.57,0-1.09-.09-1.54-.28-.45-.19-.83-.45-1.14-.79s-.55-.73-.71-1.19c-.16-.46-.24-.97-.24-1.53s.08-1.05.24-1.51c.16-.46.4-.86.71-1.2s.69-.59,1.14-.79c.45-.19.96-.28,1.54-.28s1.09.1,1.54.28c.45.19.83.45,1.14.79.31.33.55.73.71,1.2.16.46.24.97.24,1.51s-.08,1.07-.24,1.53c-.16.46-.4.86-.71,1.19-.31.33-.69.6-1.14.79-.45.19-.96.28-1.54.28Zm0-1.25c.35,0,.66-.07.92-.22.26-.15.47-.34.64-.58.17-.24.29-.51.37-.81.08-.3.12-.61.12-.92s-.04-.61-.12-.92c-.08-.31-.2-.58-.37-.81-.17-.24-.38-.43-.64-.58-.26-.15-.57-.22-.92-.22s-.66.07-.92.22c-.26.15-.47.34-.64.58-.17.24-.29.51-.37.81-.08.31-.12.61-.12.92s.04.62.12.92c.08.3.2.57.37.81.17.24.38.44.64.58.26.15.56.22.92.22Z"/><path class="cls-1" d="m246.12,62.86h1.5v1h.04c.12-.18.25-.34.39-.49.14-.15.29-.27.47-.38.17-.1.37-.18.59-.24.22-.06.48-.09.76-.09.43,0,.84.1,1.22.29.38.19.64.5.8.9.27-.37.58-.66.93-.88.35-.21.79-.32,1.32-.32.76,0,1.35.19,1.77.56.42.37.63.99.63,1.86v4.96h-1.58v-4.2c0-.29,0-.55-.03-.79-.02-.24-.07-.44-.16-.61-.09-.17-.22-.3-.4-.4-.18-.09-.42-.14-.72-.14-.54,0-.93.17-1.17.5-.24.33-.36.81-.36,1.42v4.21h-1.58v-4.61c0-.5-.09-.88-.27-1.13-.18-.25-.51-.38-.99-.38-.2,0-.4.04-.59.13-.19.08-.36.2-.5.36-.14.16-.26.35-.35.58-.09.23-.13.5-.13.79v4.27h-1.58v-7.18Z"/><path class="cls-1" d="m258.73,60.12h1.58v1.5h-1.58v-1.5Zm0,2.74h1.58v7.18h-1.58v-7.18Z"/><path class="cls-1" d="m267.37,65.26c-.07-.44-.24-.78-.54-1.01-.29-.23-.66-.34-1.1-.34-.2,0-.42.04-.65.1-.23.07-.44.2-.64.39-.19.19-.36.45-.49.79-.13.34-.19.78-.19,1.33,0,.3.04.59.1.89s.18.56.33.79c.15.23.35.42.59.56.24.14.53.22.88.22.46,0,.84-.14,1.15-.43.3-.29.49-.69.56-1.21h1.58c-.15.94-.5,1.65-1.06,2.15-.56.5-1.3.74-2.23.74-.56,0-1.06-.09-1.49-.28-.43-.19-.79-.45-1.09-.78-.3-.33-.52-.72-.67-1.17-.15-.45-.23-.94-.23-1.47s.07-1.04.22-1.51c.15-.47.37-.88.67-1.23s.66-.62,1.11-.82c.44-.2.96-.3,1.55-.3.42,0,.81.05,1.19.16.38.11.71.27,1,.48.29.21.53.48.72.81.19.32.3.71.33,1.15h-1.58Z"/><path class="cls-1" d="m278.1,60.12h1.85l3.82,9.92h-1.86l-.93-2.63h-3.96l-.93,2.63h-1.79l3.81-9.92Zm-.61,5.97h3.03l-1.49-4.27h-.04l-1.5,4.27Z"/><path class="cls-1" d="m284.2,62.86h1.18v-.6c0-.45.06-.82.17-1.11.11-.28.26-.5.44-.65.19-.15.4-.25.63-.31.24-.05.48-.08.74-.08.51,0,.88.03,1.11.1v1.24c-.1-.03-.21-.05-.33-.06-.12-.01-.25-.02-.41-.02-.21,0-.4.05-.55.15-.15.1-.23.3-.23.6v.74h1.35v1.18h-1.35v6h-1.58v-6h-1.18v-1.18Z"/><path class="cls-1" d="m289.45,62.86h1.18v-.6c0-.45.06-.82.17-1.11.11-.28.26-.5.44-.65.19-.15.4-.25.63-.31.24-.05.48-.08.74-.08.51,0,.88.03,1.11.1v1.24c-.1-.03-.21-.05-.33-.06-.12-.01-.25-.02-.41-.02-.21,0-.4.05-.55.15-.15.1-.23.3-.23.6v.74h1.35v1.18h-1.35v6h-1.58v-6h-1.18v-1.18Z"/><path class="cls-1" d="m301.05,68.44c0,.19.03.33.08.42.05.08.15.13.3.13h.17c.07,0,.14,0,.22-.03v1.1c-.06.02-.13.04-.22.06-.09.02-.18.04-.27.06-.09.02-.19.03-.28.04-.09,0-.17.01-.24.01-.32,0-.59-.06-.81-.19s-.35-.36-.42-.68c-.32.31-.7.53-1.16.67-.46.14-.9.21-1.33.21-.32,0-.64-.04-.93-.13-.3-.09-.56-.22-.79-.39-.23-.17-.41-.39-.54-.65-.13-.26-.2-.57-.2-.92,0-.44.08-.81.24-1.08.16-.28.38-.5.64-.65.26-.16.56-.27.89-.34.33-.07.66-.12.99-.16.29-.06.56-.09.82-.12.26-.02.49-.06.69-.12.2-.06.36-.14.47-.26.12-.12.17-.29.17-.52,0-.2-.05-.37-.15-.5-.1-.13-.22-.23-.36-.3-.14-.07-.3-.12-.48-.14-.18-.02-.34-.04-.5-.04-.45,0-.81.09-1.1.28-.29.19-.45.47-.49.86h-1.58c.03-.46.14-.85.33-1.15.19-.31.44-.55.74-.74.3-.19.64-.31,1.02-.39.38-.07.77-.11,1.17-.11.35,0,.7.04,1.04.11.34.07.65.19.92.36.27.17.49.38.66.65.17.26.25.59.25.97v3.7Zm-1.58-2c-.24.16-.54.25-.89.28-.35.03-.7.08-1.06.15-.17.03-.33.07-.49.12-.16.05-.3.12-.42.21-.12.09-.22.2-.28.35-.07.14-.1.32-.1.52,0,.18.05.32.15.44.1.12.23.22.37.28.14.07.3.12.47.15.17.03.33.04.47.04.18,0,.37-.02.57-.07.2-.05.4-.12.58-.24.18-.11.33-.25.45-.42.12-.17.18-.38.18-.63v-1.18Z"/><path class="cls-1" d="m303.36,60.12h1.58v1.5h-1.58v-1.5Zm0,2.74h1.58v7.18h-1.58v-7.18Z"/><path class="cls-1" d="m307.14,62.86h1.49v1.39h.03c.05-.19.14-.38.27-.57.13-.19.3-.35.49-.51.19-.15.4-.28.63-.37.23-.09.47-.14.71-.14.19,0,.31,0,.38.01.07,0,.14.02.22.03v1.53c-.11-.02-.22-.03-.34-.05-.12-.01-.23-.02-.34-.02-.27,0-.52.05-.76.16s-.44.26-.62.47c-.18.21-.31.47-.42.77-.1.31-.15.66-.15,1.06v3.42h-1.58v-7.18Z"/><path class="cls-1" d="m314.01,67.73c.05.46.22.79.53.97.31.19.67.28,1.1.28.15,0,.32-.01.51-.03.19-.02.37-.07.53-.13.17-.06.3-.16.41-.28.11-.12.15-.29.15-.49,0-.2-.08-.37-.22-.5-.14-.13-.32-.23-.54-.31-.22-.08-.47-.15-.74-.2-.28-.06-.56-.12-.85-.18-.3-.06-.58-.14-.85-.24-.27-.09-.52-.22-.74-.38-.22-.16-.39-.36-.52-.6-.13-.25-.19-.55-.19-.91,0-.39.09-.72.28-.98.19-.26.43-.48.72-.64.29-.16.62-.28.97-.34.36-.06.7-.1,1.02-.1.37,0,.72.04,1.06.12.34.08.64.21.92.38.27.18.5.41.68.69s.29.62.34,1.02h-1.65c-.08-.38-.25-.63-.52-.76-.27-.13-.59-.19-.94-.19-.11,0-.24,0-.4.03-.15.02-.3.05-.43.1-.13.05-.25.12-.34.22-.09.1-.14.22-.14.38,0,.19.07.35.2.47.13.12.31.22.53.3.22.08.47.15.74.2.28.06.56.12.86.18.29.07.57.14.85.24.28.09.53.22.74.38.22.16.39.36.53.6.13.24.2.54.2.89,0,.43-.1.79-.29,1.08-.19.3-.45.54-.76.72-.31.19-.65.32-1.03.4-.38.08-.76.12-1.13.12-.45,0-.87-.05-1.26-.15-.38-.1-.72-.26-1-.47-.28-.21-.51-.47-.67-.78-.16-.31-.25-.68-.26-1.1h1.58Z"/><path class="cls-2" d="m36.74,54.25c12.54,0,22.7-10.17,22.7-22.7s-10.17-22.7-22.7-22.7h-19.46v6.48h19.46c8.95,0,16.21,7.26,16.21,16.21s-7.26,16.21-16.21,16.21H14.04v-29.18h-6.49v35.67h29.18Z"/><polygon class="cls-3" points="65.93 8.84 85.38 54.23 92.33 54.23 72.87 8.84 65.93 8.84"/><polygon class="cls-1" points="140.68 21.09 137.81 17.37 140.78 13.52 138.69 12.8 136.37 17.47 138.72 22.12 140.68 21.09"/><polygon class="cls-1" points="136.52 13.52 134.43 12.8 132.11 17.47 134.46 22.12 136.42 21.09 133.55 17.37 136.52 13.52"/><polygon class="cls-1" points="142.95 12.8 140.63 17.47 142.98 22.12 144.94 21.09 142.08 17.37 145.05 13.52 142.95 12.8"/><rect class="cls-1" x="131.59" y="10.48" width="14.15" height="1.68"/><polygon class="cls-1" points="139.47 30.46 139.47 24.78 145.36 24.78 145.36 23.1 132.06 23.1 132.06 24.78 137.4 24.78 137.4 30.46 130.89 30.46 130.89 32.14 146.31 32.14 146.31 30.46 139.47 30.46"/><path class="cls-1" d="m122.6,29.66l1.19.57c.88-2.01,1.65-4.18,2.48-6.4l-2.04-.49c-.52,2.12-.98,4.21-1.63,6.33Z"/><path class="cls-1" d="m132.7,27.47c-.75-1.45-1.52-2.92-2.38-4.31l-1.11.54,1.78,4.78,1.7-1.01Z"/><path class="cls-1" d="m130.4,22.1l1.81-.8c-.62-1.37-1.32-2.81-1.96-4.11l-1.06.41c.18.62.39,1.27.54,1.89-1.14.05-2.25.08-3.33.1,1.83-2.25,3.62-4.52,5.32-6.79l-1.73-.88c-.8,1.24-1.6,2.48-2.43,3.72l-1.68-1.52c.98-1.37,1.99-2.81,2.97-4.31l-1.81-.75c-.65,1.42-1.34,2.81-2.07,4.26-.28-.26-.57-.49-.85-.72l-.98.8c1.08,1.32,2.22,2.66,3.23,3.98-.49.75-1.01,1.5-1.55,2.22-.67.03-1.37.03-2.04.03l.36,2.09c1.19-.15,2.43-.34,3.64-.52v11.41h1.89v-11.72l1.37-.23c.13.49.26.98.36,1.45Z"/><path class="cls-1" d="m207.16,32.58h1.96V12.13h3.74l-2.35,6.28c1.81,2.17,3.56,4.18,3.56,6.77,0,1.52-.62,1.81-1.42,1.89-.85.1-2.48.03-3.02,0l.59,1.91c4.39.34,5.81-1.08,5.81-3.59,0-2.76-1.78-4.96-3.8-7.23l2.66-5.6c.49-.23.77-.57.77-.83,0-.41-1.47-1.34-1.96-1.58l-.46.57h-6.09v21.87Zm-10.56-14.18l2.04-.88c-.77-1.32-1.68-2.66-2.5-3.9l-1.19.46c.62,1.45,1.19,2.92,1.65,4.31Zm.13,11.98v-6.4h5.45v6.4h-5.45Zm-2.01,1.63h9.48v-8.01c.28-.26.52-.57.52-.77,0-.41-1.29-1.34-1.78-1.58l-.59.7h-7.62v9.66Zm11.7-11.65v-1.68h-4.62c.88-1.5,1.73-3.05,2.58-4.62l-2.27-.46c-.57,1.7-1.19,3.41-1.86,5.09h-7.77v1.68h13.95Zm-.49-7.15v-1.68h-5.37v-2.53h-2.07v2.53h-5.09v1.68h12.52Z"/><path class="cls-1" d="m285.55,32.08l1.34-1.97c-3.51-1.1-6.54-2.55-9.27-4.41l-.07-.05h9.02v-1.55h-10.46v-1.81h7.93v-1.55h-7.93v-1.78h8.73v-1.55h-6.33l.04-.04c.17-.21.36-.42.54-.64l.13-.15c.44-.52.89-1.05,1.27-1.53h0s.01,0,.01,0h5.48v-1.55h-4.78l.04-.04c.96-1.11,1.77-2.07,2.53-3.02l-2.09-.7c-.26.45-.51.91-.76,1.34l-.07.13c-.42.74-.85,1.51-1.3,2.28h0s-.01.01-.01.01h-1.45v-4.39h-1.86v4.39h-2.3v-4.39h-1.86v4.39h-2.14l.81-.67c-1-1.05-2.15-2.15-3.24-3.19l-.97.72.42.6c.58.82,1.18,1.66,1.73,2.51l.03.04h-4.46v1.55h6.04c.3.71.59,1.47.88,2.34v.03s-5.78,0-5.78,0v1.55h8.73v1.78h-7.93v1.55h7.93v1.81h-10.48v1.55h8.4v.04h0c-1.95,1.65-4.86,3.45-8.64,5.34l.75,1.35c3.54-1.57,6.97-3.66,9.94-6.06l.04-.04v6.41h2.01v-6.39l.04.04c2.7,2.4,5.86,4.33,9.4,5.72Zm-12.35-14.66h0s-1.47-2.38-1.47-2.38h6.47l-.04.08c-.4.75-.81,1.52-1.24,2.28h0s-.01.01-.01.01h-3.69Z"/><path class="cls-1" d="m350.33,28.17c1.13-.67,2.34-1.42,3.47-2.22l-1.44-1.52c-.51.51-1.85,1.61-3.3,2.71-.93-.8-1.72-1.74-2.42-2.77h8.6v-1.6h-5.79v-3.04h4.76v-1.6h-4.76v-2.11h-1.96v2.11h-4.09v-2.11h-1.96v2.11h-4.43v-2.6h15.86v-3.55c.28-.26.51-.57.51-.77,0-.41-1.29-1.34-1.78-1.57l-.59.7h-15.99v6.46c0,7.34-.54,10.71-2.99,14.7l1.26,1.13c1.8-2.39,2.75-5.25,3.24-8.26h3.14v5.41l-3.76.49.46,2.11c3.3-.64,6.69-1.34,9.94-2.01l-.05-1.42-4.63.59v-5.18h3.14c1.37,2.88,4.38,6.03,9.85,8.2l.91-1.67c-1.78-.64-3.5-1.56-5.22-2.75Zm-13.31-16.22h13.88v2.01h-13.88v-2.01Zm4.43,10.84h-4.66c.1-1,.15-2.03.21-3.04h4.45v3.04Zm1.96,0v-3.04h4.09v3.04h-4.09Z"/><path class="cls-1" d="m231.86,19.54h18.31v-1.57h-20.27c0,3.2-.02,5.45-.35,7.46-.36,2.19-1.07,3.98-2.3,5.81l1.15,1.15c1.04-1.23,1.81-2.68,2.38-4.45.72-2.26,1.08-5.07,1.08-8.37v-.03Z"/><path class="cls-1" d="m243.85,12.62c-1.37.78-2.56,1.37-3.65,1.79h0s0,0,0,0c-1.73-.44-5.13-1.25-6.77-1.61l-.91.96c2.12.51,3.79.95,5.41,1.43l.08.02-.08.03c-1.94.62-4.15,1.12-6.75,1.52l.79,1.04c2.92-.44,5.73-1.08,8.12-1.85h0s0,0,0,0c1.64.57,3.68,1.28,5.33,1.95l.11.04.03-.04,1.15-1.42-.36-.13c-1.26-.44-2.68-.94-3.91-1.28l-.07-.02.07-.03c1.26-.52,2.49-1.15,3.48-1.76l-.85-.72h4.64v-1.57h-9.58v-2.01h-2.01v2.01h-9.06v1.57h14.92l-.09.05Z"/><path class="cls-1" d="m242.01,30.67v-2.92h5.94v-1.57h-5.94v-2.56h6.43v-1.57h-6.43v-1.99h-2.01v1.99h-4.28l.02-.04c.06-.13.11-.27.17-.41l.02-.06c.06-.15.13-.32.21-.51l.02-.05c.05-.13.11-.27.16-.41l-2.09-.4c-.63,2.24-1.24,3.98-1.92,5.48l1.09.6s.07-.1.1-.14c.02-.03.05-.07.07-.1.17-.26.34-.51.49-.76.12-.19.23-.37.33-.55.14-.25.28-.5.41-.74.02-.04.04-.08.06-.12.03-.07.07-.13.1-.2h0s.01-.01.01-.01h5.01v2.56h-5.89v1.57h5.89v2.92h-8.96v1.57h19.83v-1.57h-8.86Z"/><path class="cls-1" d="m163.46,11.59c-1.39-.8-2.87-1.63-4.18-2.32l-.77,1.14c1.34,1.03,2.63,2.12,3.82,3.18l1.14-1.99Z"/><path class="cls-1" d="m162.76,17.84c-1.42-.75-2.92-1.5-4.26-2.17l-.72,1.14c1.37,1.01,2.69,2.04,3.93,3.05l1.06-2.01Z"/><path class="cls-1" d="m161.83,22.59c-1.21,2.97-2.32,5.68-3.77,8.63l1.91,1.16c1.14-2.97,2.27-6.35,3.12-9.22l-1.27-.57Z"/><path class="cls-1" d="m176.32,23.54h-8.68c.05-.54.08-1.08.08-1.68h-1.96c-.05,4.47-.72,7.18-3.46,9.79l1.11.96c1.19-.98,2.27-2.22,3.05-3.98h9.86v3.95h1.91v-10.72h-1.91v1.68Zm0,3.54h-9.3c.18-.62.34-1.27.44-1.99h8.86v1.99Z"/><path class="cls-1" d="m178.01,15.6v-.02s1.98-.62,1.98-.62l-.96-1.61c-1.26.64-2.55,1.23-3.75,1.77h0s0,0,0,0l-1.16-.2v4.85h-.02s-1.09.28-1.09.28l.43,1.53c1.5-.54,2.98-1.09,4.35-1.61l-.12-1.12-2.04.52v-3.09h.01c.43-.14.88-.27,1.45-.42h.02s0,.01,0,.01c.68,2.05,1.6,3.97,2.83,5.87l1.64-1.06c-1.55-1.76-2.75-3.47-3.55-5.07Z"/><path class="cls-1" d="m171.77,14.84c-.6-.65-1.25-1.32-1.83-1.92l-.18-.19-.9.57,1.63,2.42,1.28-.88Z"/><path class="cls-1" d="m172.5,16.36h0c.74-.83,1.7-1.92,2.59-3.03l-1.64-.63c-.58,1.08-1.26,2.16-1.96,3.27h0s-.56,0-.56,0v6.16h1.56v-5.77Z"/><polygon class="cls-1" points="180.79 10.96 172.74 10.96 172.74 9.02 170.71 9.02 170.71 10.96 163.87 10.96 163.87 12.52 180.79 12.52 180.79 10.96"/><path class="cls-1" d="m167.43,19.06c-.35.75-.82.89-1.8.92l.65,1.53c2.24-.22,3.02-1.6,3.09-5.45h0s0-.01,0-.01c.2-.23.41-.46.41-.63,0-.29-1.14-1.15-1.55-1.34l-.38.54h-4.84v1.51h1.81v.02c-.54,2.21-1.74,3.65-2.97,4.88l1.06.95c1.97-1.76,3.12-3.67,3.49-5.84v-.02h1.41v.02c0,1.35-.12,2.27-.39,2.93Z"/><path class="cls-1" d="m308.38,25.22c0-.36-1.34-1.32-1.78-1.52l-.44.59h-3.62l.39-1.96h4.93v-4.13c.18-.21.31-.39.31-.54,0-.34-1.21-1.21-1.65-1.45l-.39.49h-1.32c1.32-1.27,2.66-2.74,3.95-4.57.44-.15.88-.49.88-.77,0-.44-1.39-1.5-1.83-1.76l-.46.62h-7v1.6h6.3c-.7,1.14-1.52,2.2-2.45,3.18l-2.97-2.45-1.01,1.01,2.51,2.87c-1.52,1.37-3.2,2.53-4.88,3.51l.83,1.27c1.42-.83,2.89-1.76,4.36-2.94h3.02v2.53h-4.62l-1.24,6.12,1.78.21.26-1.27h3.82c0,1.68-.16,2.92-.52,3.69-.41.93-1.01,1.14-2.27,1.14-1.08,0-2.66-.1-3.2-.15l.62,1.83c5.32.28,7.2.05,7.31-6.51.21-.21.39-.44.39-.62Z"/><path class="cls-1" d="m309.28,22.83c.71-.53,1.26-1.2,1.63-2.02.35-.78.53-1.66.53-2.62h0s2.32-.01,2.32-.01v1.92c0,.98.15,1.51.52,1.83.36.31.96.44,2.08.44,2.32,0,2.96-.51,2.99-2.38l-1.63-.48c0,.95-.17,1.21-1.3,1.21-.76,0-.89-.11-.89-.79v-1.84h0c.24-.18.36-.32.36-.43,0-.31-1.03-1.06-1.59-1.41l-.36.41h-4.23c0,2.85-.12,4.06-1.42,5.41l.99.76Z"/><path class="cls-1" d="m314.71,28.32h0c.93-.89,1.83-1.89,2.74-3.06h0s0,0,0,0c.45-.2.79-.53.79-.77,0-.32-1.15-1.39-1.77-1.77l-.39.51h-7.12v1.53h6.46v.02c-.69.97-1.4,1.8-2.16,2.53h0s0,0,0,0c-.92-.74-1.62-1.49-2.17-2.29l-1.12.69c.56,1.02,1.25,1.94,2.06,2.73h0s0,.02,0,.02c-1.46,1.2-2.99,2.16-4.67,2.91l.87,1.27c1.85-.8,3.56-1.84,5.08-3.09h0s0,0,0,0c1.58,1.22,3.55,2.19,5.85,2.89l1.15-1.74c-2.18-.6-4.07-1.4-5.62-2.37h-.01Z"/><path class="cls-1" d="m320.07,19.99l1.51-1.51c-1.82-.92-3.41-1.91-4.87-3.02h-.01s0-.02,0-.02l3.11-2.65-1.74-1.2-2.4,3.02h0c-.61-.52-1.19-1.09-1.83-1.79h0s0-.01,0-.01l2.44-2.24-1.63-1.2-1.71,2.38h0c-.69-.89-1.3-1.78-1.86-2.74l-1.35.64c1.03,2.07,2.24,3.79,3.82,5.4,1.69,1.73,3.82,3.34,6.52,4.94Z"/><path class="cls-1" d="m389.6,22.16v-1.55h-7.19c1.9-.98,3.77-2.02,5.43-3.15l-1.52-1.21c-2.29,1.59-4.54,3.03-7.11,4.36h-1.31v-1.73h4.08v-1.55h-4.08v-1.7h8.78v-3.48c.29-.3.52-.59.52-.81,0-.41-1.29-1.34-1.78-1.58l-.59.7h-15.94v5.17h7.08v1.7h-6.92v1.55h6.92v1.73h-9.76v1.55h9.8c-3.16,1.28-6.37,2.41-9.9,3.51l.72,1.63c1.71-.59,3.37-1.21,4.98-1.85v7.17h14.36v-7.08c.28-.26.52-.57.52-.77,0-.41-1.29-1.34-1.78-1.58l-.59.7h-8.76c1.31-.57,2.59-1.15,3.86-1.73h10.19Zm-13.53-8.08v-2.07h3.41v2.07h-3.41Zm8.68,0h-3.41v-2.07h3.41v2.07Zm-13.92-2.07h3.38v2.07h-3.38v-2.07Zm3,19.03v-2.09h10.33v2.09h-10.33Zm10.33-3.59h-10.33v-2.01h10.33v2.01Z"/></svg>